<?xml version="1.0" encoding="UTF-8"?>
<svg id="Layer_1" data-name="Layer 1" xmlns="http://www.w3.org/2000/svg" width="757.29" height="151.46" viewBox="0 0 757.29 151.46">
  <defs>
    <style>
      .cls-1 {
        fill: #2b2929;
      }
    </style>
  </defs>
  <path class="cls-1" d="M119.11,96.17v17.11h-62.86V34.99h61.4v17.11h-39.48v13.2h34.78v16.55h-34.78v14.32h40.94Z"/>
  <path class="cls-1" d="M197.4,30.29v82.99h-20.24v-6.04c-4.03,4.81-9.95,7.05-17.78,7.05-16.55,0-29.86-12.08-29.86-31.43s13.31-31.21,29.86-31.21c7.05,0,12.75,2.01,16.78,6.26v-27.63h21.25ZM176.48,82.86c0-9.17-5.48-14.32-12.64-14.32s-12.75,5.14-12.75,14.32,5.48,14.54,12.75,14.54,12.64-5.26,12.64-14.54Z"/>
  <path class="cls-1" d="M277.59,52.66v60.62h-20.24v-6.49c-4.59,5.03-11.07,7.49-18.01,7.49-14.88,0-25.72-8.5-25.72-27.74v-33.89h21.25v30.42c0,9.39,3.69,13.09,10.07,13.09s11.41-4.14,11.41-14.32v-29.19h21.25Z"/>
  <path class="cls-1" d="M365.73,113.28l-.22-41.5-20.13,33.78h-9.84l-20.02-32.66v40.38h-20.47V34.99h18.23l27.51,45.19,26.84-45.19h18.23l.22,78.29h-20.36Z"/>
  <path class="cls-1" d="M460.35,79.61v33.67h-19.8v-7.83c-3.02,5.82-9.06,8.84-17.9,8.84-14.54,0-22.59-8.17-22.59-18.68,0-11.18,8.17-18.12,26.96-18.12h12.08c-.34-6.15-4.47-9.62-12.86-9.62-5.82,0-12.3,2.01-16.44,5.26l-7.16-14.43c6.93-4.59,17.22-7.05,26.73-7.05,19.69,0,30.98,8.72,30.98,27.96ZM439.1,93.82v-5.26h-9.17c-6.82,0-9.28,2.46-9.28,6.15s2.91,6.15,7.94,6.15c4.7,0,8.84-2.24,10.51-7.05Z"/>
  <path class="cls-1" d="M471.76,108.02l6.38-14.54c5.59,3.47,13.76,5.59,21.14,5.59s9.51-1.57,9.51-4.14c0-8.17-35.79,1.12-35.79-23.15,0-11.41,10.51-20.13,29.53-20.13,8.5,0,17.9,1.79,23.94,5.14l-6.38,14.43c-6.04-3.35-12.08-4.47-17.45-4.47-7.16,0-9.73,2.01-9.73,4.25,0,8.39,35.68-.67,35.68,23.38,0,11.18-10.29,19.91-29.98,19.91-10.29,0-20.92-2.57-26.84-6.26Z"/>
  <path class="cls-1" d="M582.37,110.82c-3.69,2.35-9.17,3.47-14.76,3.47-15.55,0-24.61-7.61-24.61-23.15v-20.36h-8.84v-15.88h8.84v-15.77h21.25v15.77h13.87v15.88h-13.87v20.13c0,4.47,2.57,6.93,6.38,6.93,2.35,0,4.7-.67,6.49-1.9l5.26,14.88Z"/>
  <path class="cls-1" d="M653.17,88.34h-44.07c1.79,6.15,7.05,9.73,14.88,9.73,5.93,0,9.84-1.68,13.98-5.26l11.19,11.63c-5.82,6.49-14.32,9.84-25.84,9.84-21.59,0-35.57-13.31-35.57-31.43s14.2-31.21,33.33-31.21c17.9,0,32.44,11.41,32.44,31.43,0,1.57-.22,3.58-.33,5.26ZM608.77,77.15h24.83c-1.12-6.38-5.82-10.4-12.42-10.4s-11.18,4.03-12.42,10.4Z"/>
  <path class="cls-1" d="M706.75,51.65v19.12c-1.9-.22-3.24-.33-4.81-.33-8.61,0-14.54,4.36-14.54,14.99v27.85h-21.25v-60.62h20.25v7.27c4.36-5.48,11.41-8.28,20.36-8.28Z"/>
</svg>